<?xml version="1.0" encoding="UTF-8" standalone="no"?>
<!-- Created with Inkscape (http://www.inkscape.org/) -->

<svg
   width="291.04047mm"
   height="169.71205mm"
   viewBox="0 0 291.04047 169.71205"
   version="1.1"
   id="svg3531"
   xml:space="preserve"
   inkscape:version="1.2.2 (732a01da63, 2022-12-09, custom)"
   sodipodi:docname="vistual_env_flow.svg"
   inkscape:export-filename="../c6d4d84f/virtual_env_flow.png"
   inkscape:export-xdpi="96"
   inkscape:export-ydpi="96"
   xmlns:inkscape="http://www.inkscape.org/namespaces/inkscape"
   xmlns:sodipodi="http://sodipodi.sourceforge.net/DTD/sodipodi-0.dtd"
   xmlns="http://www.w3.org/2000/svg"
   xmlns:svg="http://www.w3.org/2000/svg"><sodipodi:namedview
     id="namedview3533"
     pagecolor="#ffffff"
     bordercolor="#000000"
     borderopacity="0.25"
     inkscape:showpageshadow="2"
     inkscape:pageopacity="0.0"
     inkscape:pagecheckerboard="0"
     inkscape:deskcolor="#d1d1d1"
     inkscape:document-units="mm"
     showgrid="false"
     inkscape:zoom="0.75900672"
     inkscape:cx="571.79994"
     inkscape:cy="296.44006"
     inkscape:window-width="1920"
     inkscape:window-height="1055"
     inkscape:window-x="0"
     inkscape:window-y="25"
     inkscape:window-maximized="1"
     inkscape:current-layer="layer1"
     showguides="true"><inkscape:grid
       type="xygrid"
       id="grid14190"
       originx="-1.9110871"
       originy="-2.2504255" /></sodipodi:namedview><defs
     id="defs3528"><marker
       style="overflow:visible"
       id="marker1894"
       refX="0"
       refY="0"
       orient="auto-start-reverse"
       inkscape:stockid="Arrow5"
       markerWidth="5.8874264"
       markerHeight="6.6094756"
       viewBox="0 0 5.8874262 6.6094758"
       inkscape:isstock="true"
       inkscape:collect="always"
       preserveAspectRatio="xMidYMid"><path
         transform="scale(0.5)"
         style="fill:context-stroke;fill-rule:evenodd;stroke:context-stroke;stroke-width:1pt"
         d="m 6,0 c -3,1 -7,3 -9,5 0,0 0,-4 2,-5 -2,-1 -2,-5 -2,-5 2,2 6,4 9,5 z"
         id="path1892" /></marker><marker
       style="overflow:visible"
       id="marker13739"
       refX="0"
       refY="0"
       orient="auto-start-reverse"
       inkscape:stockid="Arrow5"
       markerWidth="5.8874264"
       markerHeight="6.6094756"
       viewBox="0 0 5.8874262 6.6094758"
       inkscape:isstock="true"
       inkscape:collect="always"
       preserveAspectRatio="xMidYMid"><path
         transform="scale(0.5)"
         style="fill:context-stroke;fill-rule:evenodd;stroke:context-stroke;stroke-width:1pt"
         d="m 6,0 c -3,1 -7,3 -9,5 0,0 0,-4 2,-5 -2,-1 -2,-5 -2,-5 2,2 6,4 9,5 z"
         id="path13737" /></marker><marker
       style="overflow:visible"
       id="marker13563"
       refX="0"
       refY="0"
       orient="auto-start-reverse"
       inkscape:stockid="Arrow5"
       markerWidth="5.8874264"
       markerHeight="6.6094756"
       viewBox="0 0 5.8874262 6.6094758"
       inkscape:isstock="true"
       inkscape:collect="always"
       preserveAspectRatio="xMidYMid"><path
         transform="scale(0.5)"
         style="fill:context-stroke;fill-rule:evenodd;stroke:context-stroke;stroke-width:1pt"
         d="m 6,0 c -3,1 -7,3 -9,5 0,0 0,-4 2,-5 -2,-1 -2,-5 -2,-5 2,2 6,4 9,5 z"
         id="path13561" /></marker><marker
       style="overflow:visible"
       id="Arrow5"
       refX="0"
       refY="0"
       orient="auto-start-reverse"
       inkscape:stockid="Arrow5"
       markerWidth="5.8874264"
       markerHeight="6.6094756"
       viewBox="0 0 5.8874262 6.6094758"
       inkscape:isstock="true"
       inkscape:collect="always"
       preserveAspectRatio="xMidYMid"><path
         transform="scale(0.5)"
         style="fill:context-stroke;fill-rule:evenodd;stroke:context-stroke;stroke-width:1pt"
         d="m 6,0 c -3,1 -7,3 -9,5 0,0 0,-4 2,-5 -2,-1 -2,-5 -2,-5 2,2 6,4 9,5 z"
         id="path8893" /></marker><clipPath
       clipPathUnits="userSpaceOnUse"
       id="clipPath4095"><rect
         style="fill:#ececec;stroke-width:0.896001;stroke-linecap:round;stroke-miterlimit:13.1;stroke-dashoffset:0.596409;paint-order:stroke fill markers"
         id="rect4097"
         width="47.523235"
         height="48.750191"
         x="51.722485"
         y="66.534615"
         ry="17.527967" /></clipPath><marker
       style="overflow:visible"
       id="Arrow5-2"
       refX="0"
       refY="0"
       orient="auto-start-reverse"
       inkscape:stockid="Arrow5"
       markerWidth="5.8874264"
       markerHeight="6.6094756"
       viewBox="0 0 5.8874262 6.6094758"
       inkscape:isstock="true"
       inkscape:collect="always"
       preserveAspectRatio="xMidYMid"><path
         transform="scale(0.5)"
         style="fill:context-stroke;fill-rule:evenodd;stroke:context-stroke;stroke-width:1pt"
         d="m 6,0 c -3,1 -7,3 -9,5 0,0 0,-4 2,-5 -2,-1 -2,-5 -2,-5 2,2 6,4 9,5 z"
         id="path8893-0" /></marker></defs><g
     inkscape:label="Camada 1"
     inkscape:groupmode="layer"
     id="layer1"
     transform="translate(-1.9110871,-2.2504256)"><rect
       style="fill:#cccccc;stroke:#000000;stroke-width:0.4;stroke-dasharray:1.59999, 0.8;stroke-dashoffset:0;stroke-opacity:1"
       id="rect402"
       width="290.63943"
       height="169.30838"
       x="2.1110871"
       y="2.4519045"
       ry="7.1872292"
       sodipodi:insensitive="true" /><path
       style="fill:#333333;fill-opacity:1;stroke:none;stroke-width:2.75435"
       d="m 75.841122,44.577073 c -24.330828,0 -44.069631,19.738824 -44.069631,44.069673 0,24.330844 19.738803,44.069664 44.069631,44.069664 24.330828,0 44.069628,-19.73882 44.069628,-44.069664 0,-24.330849 -19.7388,-44.069673 -44.069628,-44.069673 z m 0,1.377181 c 23.586606,0 42.692468,19.105917 42.692468,42.692492 0,23.586564 -19.105862,42.692484 -42.692468,42.692484 -23.586501,0 -42.692471,-19.10592 -42.692471,-42.692484 0,-23.586575 19.10597,-42.692492 42.692471,-42.692492 z M 59.067548,73.497791 c -1.382677,0 -2.50687,1.124214 -2.50687,2.506902 v 7.380801 c 0,0.721632 0.316469,1.361087 0.806787,1.818311 -0.490318,0.457214 -0.806787,1.096658 -0.806787,1.818301 v 7.380812 c 0,0.721632 0.316469,1.361076 0.806787,1.8183 -0.490318,0.457214 -0.806787,1.096658 -0.806787,1.818301 v 7.380811 c 0,1.38269 1.124193,2.50689 2.50687,2.50689 h 32.169989 c 1.382677,0 2.50687,-1.1242 2.50687,-2.50689 v -7.380811 c 0,-0.721632 -0.316469,-1.361076 -0.806787,-1.818301 0.490318,-0.457214 0.806787,-1.096658 0.806787,-1.8183 v -7.380812 c 0,-0.721632 -0.316469,-1.361087 -0.806787,-1.818301 0.490318,-0.457214 0.806787,-1.096668 0.806787,-1.818311 v -7.380801 c 0,-1.382688 -1.124193,-2.506902 -2.50687,-2.506902 z m 0,1.377181 h 32.169989 c 0.62565,0 1.12971,0.507287 1.12971,1.129721 v 7.380801 c 0,0.625234 -0.506974,1.129721 -1.12971,1.129721 H 59.067548 c -0.622527,0 -1.12971,-0.507183 -1.12971,-1.129721 v -7.380801 c 0,-0.625234 0.506975,-1.129721 1.12971,-1.129721 z m 28.479588,3.99166 c -0.457006,0 -0.828648,0.371226 -0.828648,0.828441 0,0.457214 0.371642,0.82844 0.828648,0.82844 0.457006,0 0.828649,-0.371226 0.828649,-0.82844 0,-0.457215 -0.371643,-0.828441 -0.828649,-0.828441 z m -26.166347,0.139913 v 1.37718 h 11.017382 v -1.37718 z m 26.166347,0.139912 c 0.302936,0 0.548615,0.245784 0.548615,0.54872 0,0.302935 -0.245679,0.548719 -0.548615,0.548719 -0.302935,0 -0.548615,-0.245784 -0.548615,-0.548719 0,-0.302936 0.24568,-0.54872 0.548615,-0.54872 z m -28.479588,6.746011 h 32.169989 c 0.62565,0 1.12971,0.507183 1.12971,1.129721 v 7.380812 c 0,0.625234 -0.506974,1.12971 -1.12971,1.12971 H 59.067548 c -0.622527,0 -1.12971,-0.507183 -1.12971,-1.12971 v -7.380812 c 0,-0.625234 0.506975,-1.129721 1.12971,-1.129721 z m 28.538718,3.991671 c -0.457006,0 -0.828649,0.371226 -0.828649,0.82844 0,0.457214 0.371643,0.828441 0.828649,0.828441 0.457006,0 0.823443,-0.371227 0.823443,-0.828441 0,-0.457214 -0.368519,-0.82844 -0.823443,-0.82844 z m -26.225477,0.139808 v 1.377181 h 11.017382 v -1.377181 z m 26.225477,0.139913 c 0.306059,0 0.548615,0.245784 0.548615,0.548719 0,0.302936 -0.24568,0.54872 -0.548615,0.54872 -0.302936,0 -0.55382,-0.245784 -0.55382,-0.54872 0,-0.302935 0.248802,-0.548719 0.55382,-0.548719 z m -28.538718,6.746021 h 32.169989 c 0.62565,0 1.12971,0.507287 1.12971,1.129711 v 7.380808 c 0,0.62524 -0.506974,1.12971 -1.12971,1.12971 H 59.067548 c -0.62565,0 -1.12971,-0.50728 -1.12971,-1.12971 v -7.380808 c 0,-0.625234 0.506975,-1.129711 1.12971,-1.129711 z M 87.531,100.90154 c -0.457005,0 -0.828648,0.37123 -0.828648,0.82844 0,0.45722 0.373725,0.82844 0.828648,0.82844 0.457006,0 0.828649,-0.37122 0.828649,-0.82844 0,-0.45721 -0.371643,-0.82844 -0.828649,-0.82844 z m -26.150211,0.13991 v 1.37717 h 11.017382 v -1.37717 z M 87.531,101.18137 c 0.302936,0 0.548616,0.24578 0.548616,0.54872 0,0.30293 -0.24568,0.54872 -0.548616,0.54872 -0.302935,0 -0.548615,-0.24579 -0.548615,-0.54872 0,-0.30294 0.24568,-0.54872 0.548615,-0.54872 z"
       id="path7"
       clip-path="url(#clipPath4095)"
       transform="translate(-36.224756,17.402078)" /><text
       xml:space="preserve"
       style="font-size:11.2889px;fill:#1a1a1a;stroke-width:0.896001;stroke-linecap:round;stroke-miterlimit:13.1;stroke-dashoffset:0.596409;paint-order:stroke fill markers"
       x="26.407658"
       y="88.245483"
       id="text4153"><tspan
         sodipodi:role="line"
         id="tspan4151"
         style="font-style:normal;font-variant:normal;font-weight:500;font-stretch:normal;font-size:11.2889px;font-family:'FiraCode Nerd Font';-inkscape-font-specification:'FiraCode Nerd Font Medium';fill:#333333;stroke-width:0.896"
         x="26.407658"
         y="88.245483">PyPI</tspan></text><text
       xml:space="preserve"
       style="font-size:8.46667px;fill:#1a1a1a;stroke-width:0.896001;stroke-linecap:round;stroke-miterlimit:13.1;stroke-dashoffset:0.596409;paint-order:stroke fill markers"
       x="66.363335"
       y="119.48138"
       id="text4153-5"><tspan
         sodipodi:role="line"
         id="tspan4151-3"
         style="font-style:normal;font-variant:normal;font-weight:500;font-stretch:normal;font-size:8.46667px;font-family:'FiraCode Nerd Font';-inkscape-font-specification:'FiraCode Nerd Font Medium';fill:#333333;stroke-width:0.896"
         x="66.363335"
         y="119.48138">pipx</tspan></text><rect
       style="fill:#333333;stroke-width:0.806196;stroke-linecap:round;stroke-miterlimit:13.1;stroke-dashoffset:0.596409;paint-order:stroke fill markers"
       id="rect4463"
       width="53.638153"
       height="16.576843"
       x="112.53592"
       y="102.98801"
       ry="8.2884216" /><text
       xml:space="preserve"
       style="font-style:normal;font-variant:normal;font-weight:500;font-stretch:normal;font-size:11.2889px;font-family:'FiraCode Nerd Font';-inkscape-font-specification:'FiraCode Nerd Font Medium';fill:#cccccc;fill-opacity:1;stroke-width:0.896001;stroke-linecap:round;stroke-miterlimit:13.1;stroke-dashoffset:0.596409;paint-order:stroke fill markers"
       x="119.53057"
       y="115.35909"
       id="text4868"><tspan
         sodipodi:role="line"
         id="tspan4866"
         style="fill:#cccccc;fill-opacity:1;stroke-width:0.896"
         x="119.53057"
         y="115.35909">Global</tspan></text><text
       xml:space="preserve"
       style="font-style:normal;font-variant:normal;font-weight:500;font-stretch:normal;font-size:11.2889px;font-family:'FiraCode Nerd Font';-inkscape-font-specification:'FiraCode Nerd Font Medium';fill:#333333;fill-opacity:1;stroke-width:0.896001;stroke-linecap:round;stroke-miterlimit:13.1;stroke-dashoffset:0.596409;paint-order:stroke fill markers"
       x="109.85346"
       y="29.079445"
       id="text4868-3"><tspan
         sodipodi:role="line"
         id="tspan4866-6"
         style="font-style:normal;font-variant:normal;font-weight:600;font-stretch:normal;font-family:'FiraCode Nerd Font';-inkscape-font-specification:'FiraCode Nerd Font Semi-Bold';fill:#333333;fill-opacity:1;stroke-width:0.896"
         x="109.85346"
         y="29.079445">Trajeto das </tspan><tspan
         sodipodi:role="line"
         style="font-style:normal;font-variant:normal;font-weight:600;font-stretch:normal;font-family:'FiraCode Nerd Font';-inkscape-font-specification:'FiraCode Nerd Font Semi-Bold';fill:#333333;fill-opacity:1;stroke-width:0.896"
         x="109.85346"
         y="43.190571"
         id="tspan1029">bibliotecas</tspan></text><rect
       style="fill:#333333;stroke-width:0.771466;stroke-linecap:round;stroke-miterlimit:13.1;stroke-dashoffset:0.596409;paint-order:stroke fill markers"
       id="rect4463-3"
       width="49.116348"
       height="16.576843"
       x="220.94698"
       y="81.642715"
       ry="8.2884216" /><text
       xml:space="preserve"
       style="font-style:normal;font-variant:normal;font-weight:500;font-stretch:normal;font-size:11.2889px;font-family:'FiraCode Nerd Font';-inkscape-font-specification:'FiraCode Nerd Font Medium';fill:#cccccc;fill-opacity:1;stroke-width:0.896001;stroke-linecap:round;stroke-miterlimit:13.1;stroke-dashoffset:0.596409;paint-order:stroke fill markers"
       x="228.12505"
       y="92.845581"
       id="text4868-6"><tspan
         sodipodi:role="line"
         id="tspan4866-7"
         style="fill:#cccccc;fill-opacity:1;stroke-width:0.896"
         x="228.12505"
         y="92.845581">venv2</tspan></text><rect
       style="fill:#333333;stroke-width:0.771466;stroke-linecap:round;stroke-miterlimit:13.1;stroke-dashoffset:0.596409;paint-order:stroke fill markers"
       id="rect4463-3-7"
       width="49.116348"
       height="16.576843"
       x="221.35193"
       y="127.90022"
       ry="8.2884216" /><text
       xml:space="preserve"
       style="font-style:normal;font-variant:normal;font-weight:500;font-stretch:normal;font-size:11.2889px;font-family:'FiraCode Nerd Font';-inkscape-font-specification:'FiraCode Nerd Font Medium';fill:#cccccc;fill-opacity:1;stroke-width:0.896001;stroke-linecap:round;stroke-miterlimit:13.1;stroke-dashoffset:0.596409;paint-order:stroke fill markers"
       x="229.62206"
       y="139.63225"
       id="text4868-6-0"><tspan
         sodipodi:role="line"
         id="tspan4866-7-9"
         style="fill:#cccccc;fill-opacity:1;stroke-width:0.896"
         x="229.62206"
         y="139.63225">venv3</tspan></text><rect
       style="fill:#333333;stroke-width:0.771466;stroke-linecap:round;stroke-miterlimit:13.1;stroke-dashoffset:0.596409;paint-order:stroke fill markers"
       id="rect4463-3-7-6"
       width="49.116348"
       height="16.576843"
       x="221.78952"
       y="43.598965"
       ry="8.2884216" /><text
       xml:space="preserve"
       style="font-style:normal;font-variant:normal;font-weight:500;font-stretch:normal;font-size:11.2889px;font-family:'FiraCode Nerd Font';-inkscape-font-specification:'FiraCode Nerd Font Medium';fill:#cccccc;fill-opacity:1;stroke-width:0.896001;stroke-linecap:round;stroke-miterlimit:13.1;stroke-dashoffset:0.596409;paint-order:stroke fill markers"
       x="229.03777"
       y="54.80183"
       id="text4868-6-0-0"><tspan
         sodipodi:role="line"
         id="tspan4866-7-9-6"
         style="fill:#cccccc;fill-opacity:1;stroke-width:0.896"
         x="229.03777"
         y="54.80183">venv1</tspan></text><path
       style="fill:none;stroke:#333333;stroke-width:0.639279;stroke-linecap:round;stroke-miterlimit:13.1;stroke-dasharray:none;stroke-dashoffset:0.596409;stroke-opacity:1;marker-end:url(#Arrow5-2);paint-order:stroke fill markers"
       d="M 41.028757,54.537166 40.795253,77.335245"
       id="path5157-2" /><path
       style="fill:none;fill-opacity:1;stroke:#333333;stroke-width:0.8;stroke-dasharray:0.8, 0.8;stroke-dashoffset:0;stroke-opacity:1;marker-end:url(#marker1894)"
       d="m 56.870209,109.14092 h 53.704931 c 0,0 2.22962,-7.05944 7.25443,-9.26524 5.10999,-2.243196 16.41689,-2.279847 22.19862,-2.09683 5.62207,0.177963 14.27119,0.184322 19.37573,2.025863 5.47717,1.975967 8.77123,8.437237 8.77123,8.437237 0,0 5.60097,0.99607 12.28562,0.52196 5.93866,-0.42122 12.73261,-2.23155 17.21444,-3.46749 7.57158,-2.08799 21.33195,-10.007246 21.33195,-10.007246"
       id="path1603"
       sodipodi:nodetypes="ccssscssc" /><text
       xml:space="preserve"
       style="font-size:8.46667px;fill:#1a1a1a;stroke-width:0.896001;stroke-linecap:round;stroke-miterlimit:13.1;stroke-dashoffset:0.596409;paint-order:stroke fill markers"
       x="68.343964"
       y="106.78415"
       id="text4153-56"><tspan
         sodipodi:role="line"
         id="tspan4151-2"
         style="font-style:normal;font-variant:normal;font-weight:500;font-stretch:normal;font-size:8.46667px;font-family:'FiraCode Nerd Font';-inkscape-font-specification:'FiraCode Nerd Font Medium';fill:#333333;stroke-width:0.896"
         x="68.343964"
         y="106.78415">pip</tspan></text><text
       xml:space="preserve"
       style="font-size:8.46667px;fill:#1a1a1a;stroke-width:0.896001;stroke-linecap:round;stroke-miterlimit:13.1;stroke-dashoffset:0.596409;paint-order:stroke fill markers"
       x="128.84618"
       y="94.026955"
       id="text4153-56-9"><tspan
         sodipodi:role="line"
         id="tspan4151-2-1"
         style="font-style:normal;font-variant:normal;font-weight:500;font-stretch:normal;font-size:8.46667px;font-family:'FiraCode Nerd Font';-inkscape-font-specification:'FiraCode Nerd Font Medium';fill:#333333;stroke-width:0.896"
         x="128.84618"
         y="94.026955">pyenv</tspan></text><path
       style="fill:none;fill-opacity:1;stroke:#333333;stroke-width:0.804616;stroke-linecap:butt;stroke-linejoin:bevel;stroke-miterlimit:13.1;stroke-dasharray:0.821849, 0.821849;stroke-dashoffset:0;stroke-opacity:1;marker-end:url(#marker13563);paint-order:normal"
       d="m 182.00207,108.93228 c 0,0 14.36075,3.21334 20.41115,7.12865 6.31484,4.08644 15.51476,16.3853 15.51476,16.3853"
       id="path13559"
       sodipodi:nodetypes="cac" /><path
       style="fill:none;fill-opacity:1;stroke:#333333;stroke-width:0.747001;stroke-linecap:butt;stroke-linejoin:bevel;stroke-miterlimit:13.1;stroke-dasharray:0.763, 0.763;stroke-dashoffset:0;stroke-opacity:1;marker-end:url(#marker13739);paint-order:normal"
       d="m 181.91341,108.59047 c 0,0 15.41447,-9.711264 21.22656,-16.544791 8.13845,-9.568745 18.09617,-33.055813 18.09617,-33.055813"
       id="path13735"
       sodipodi:nodetypes="cac" /><text
       xml:space="preserve"
       style="font-style:normal;font-variant:normal;font-weight:500;font-stretch:normal;font-size:5.64444px;font-family:'FiraCode Nerd Font';-inkscape-font-specification:'FiraCode Nerd Font Medium';fill:none;fill-opacity:1;stroke:#333333;stroke-width:0.047;stroke-linecap:butt;stroke-linejoin:bevel;stroke-miterlimit:13.1;stroke-dasharray:none;stroke-dashoffset:0;stroke-opacity:1;paint-order:normal"
       x="122.25803"
       y="124.63519"
       id="text13967"><tspan
         sodipodi:role="line"
         id="tspan13965"
         style="font-size:5.64444px;fill:#333333;fill-opacity:1;stroke-width:0.047;stroke-dasharray:none"
         x="122.25803"
         y="124.63519">Python 3.8</tspan></text><text
       xml:space="preserve"
       style="font-style:normal;font-variant:normal;font-weight:500;font-stretch:normal;font-size:5.64444px;font-family:'FiraCode Nerd Font';-inkscape-font-specification:'FiraCode Nerd Font Medium';fill:none;fill-opacity:1;stroke:#333333;stroke-width:0.047;stroke-linecap:butt;stroke-linejoin:bevel;stroke-miterlimit:13.1;stroke-dasharray:none;stroke-dashoffset:0;stroke-opacity:1;paint-order:normal"
       x="227.72707"
       y="65.373711"
       id="text13967-2"><tspan
         sodipodi:role="line"
         id="tspan13965-6"
         style="font-size:5.64444px;fill:#333333;fill-opacity:1;stroke-width:0.047;stroke-dasharray:none"
         x="227.72707"
         y="65.373711">Python 3.11</tspan></text><text
       xml:space="preserve"
       style="font-style:normal;font-variant:normal;font-weight:500;font-stretch:normal;font-size:5.64444px;font-family:'FiraCode Nerd Font';-inkscape-font-specification:'FiraCode Nerd Font Medium';fill:none;fill-opacity:1;stroke:#333333;stroke-width:0.047;stroke-linecap:butt;stroke-linejoin:bevel;stroke-miterlimit:13.1;stroke-dasharray:none;stroke-dashoffset:0;stroke-opacity:1;paint-order:normal"
       x="227.84914"
       y="70.361191"
       id="text13967-2-3"><tspan
         sodipodi:role="line"
         id="tspan13965-6-6"
         style="font-size:5.64444px;fill:#333333;fill-opacity:1;stroke-width:0.047;stroke-dasharray:none"
         x="227.84914"
         y="70.361191">pandas 2.0</tspan></text><text
       xml:space="preserve"
       style="font-style:normal;font-variant:normal;font-weight:500;font-stretch:normal;font-size:5.64444px;font-family:'FiraCode Nerd Font';-inkscape-font-specification:'FiraCode Nerd Font Medium';fill:none;fill-opacity:1;stroke:#333333;stroke-width:0.047;stroke-linecap:butt;stroke-linejoin:bevel;stroke-miterlimit:13.1;stroke-dasharray:none;stroke-dashoffset:0;stroke-opacity:1;paint-order:normal"
       x="227.81229"
       y="108.52197"
       id="text13967-2-7"><tspan
         sodipodi:role="line"
         id="tspan13965-6-5"
         style="font-size:5.64444px;fill:#333333;fill-opacity:1;stroke-width:0.047;stroke-dasharray:none"
         x="227.81229"
         y="108.52197">pandas 1.1.0</tspan></text><text
       xml:space="preserve"
       style="font-style:normal;font-variant:normal;font-weight:500;font-stretch:normal;font-size:5.64444px;font-family:'FiraCode Nerd Font';-inkscape-font-specification:'FiraCode Nerd Font Medium';fill:none;fill-opacity:1;stroke:#333333;stroke-width:0.047;stroke-linecap:butt;stroke-linejoin:bevel;stroke-miterlimit:13.1;stroke-dasharray:none;stroke-dashoffset:0;stroke-opacity:1;paint-order:normal"
       x="227.90976"
       y="155.84149"
       id="text13967-2-35"><tspan
         sodipodi:role="line"
         id="tspan13965-6-62"
         style="font-size:5.64444px;fill:#333333;fill-opacity:1;stroke-width:0.047;stroke-dasharray:none"
         x="227.90976"
         y="155.84149">pandas 1.5.3</tspan></text><text
       xml:space="preserve"
       style="font-style:normal;font-variant:normal;font-weight:500;font-stretch:normal;font-size:5.64444px;font-family:'FiraCode Nerd Font';-inkscape-font-specification:'FiraCode Nerd Font Medium';fill:none;fill-opacity:1;stroke:#333333;stroke-width:0.047;stroke-linecap:butt;stroke-linejoin:bevel;stroke-miterlimit:13.1;stroke-dasharray:none;stroke-dashoffset:0;stroke-opacity:1;paint-order:normal"
       x="227.64702"
       y="103.09805"
       id="text13967-2-1"><tspan
         sodipodi:role="line"
         id="tspan13965-6-8"
         style="font-size:5.64444px;fill:#333333;fill-opacity:1;stroke-width:0.047;stroke-dasharray:none"
         x="227.64702"
         y="103.09805">Python 2.7</tspan></text><text
       xml:space="preserve"
       style="font-style:normal;font-variant:normal;font-weight:500;font-stretch:normal;font-size:5.64444px;font-family:'FiraCode Nerd Font';-inkscape-font-specification:'FiraCode Nerd Font Medium';fill:none;fill-opacity:1;stroke:#333333;stroke-width:0.047;stroke-linecap:butt;stroke-linejoin:bevel;stroke-miterlimit:13.1;stroke-dasharray:none;stroke-dashoffset:0;stroke-opacity:1;paint-order:normal"
       x="227.58125"
       y="150.22255"
       id="text13967-2-1-7"><tspan
         sodipodi:role="line"
         id="tspan13965-6-8-9"
         style="font-size:5.64444px;fill:#333333;fill-opacity:1;stroke-width:0.047;stroke-dasharray:none"
         x="227.58125"
         y="150.22255">Python 3.11</tspan></text><path
       fill-rule="evenodd"
       d="m 24.51605,12.232541 c -3.022881,0 -5.456674,2.433743 -5.456674,5.456625 v 31.059436 c 0,3.022883 2.433793,5.456675 5.456674,5.456675 h 31.059438 c 3.022879,0 5.456671,-2.433792 5.456671,-5.456675 V 17.689166 c 0,-3.022882 -2.433792,-5.456625 -5.456671,-5.456625 z m 15.570692,14.428107 c 2.072693,0 3.829849,1.16762 4.877698,2.787256 0.349993,-0.07981 0.678126,-0.164091 1.065697,-0.164091 2.889824,0 5.246628,2.356754 5.246628,5.24658 0,2.889825 -2.319078,5.246629 -5.04164,5.246629 H 32.790718 c -2.184981,0 -3.975945,-1.787842 -3.975945,-3.975945 0,-2.188103 1.78799,-3.975944 3.975945,-3.975944 0.539217,0 0.964365,0.335616 1.434576,0.532872 0.116002,-3.150735 2.683052,-5.697507 5.861448,-5.697507 z"
       id="path16143"
       style="fill:#333333;fill-opacity:1;stroke-width:1.31165" /><text
       xml:space="preserve"
       style="font-size:8.46667px;fill:#cccccc;stroke-width:0.896001;stroke-linecap:round;stroke-miterlimit:13.1;stroke-dashoffset:0.596409;paint-order:stroke fill markers"
       x="29.992069"
       y="49.8167"
       id="text4153-56-5"><tspan
         sodipodi:role="line"
         id="tspan4151-2-4"
         style="font-style:normal;font-variant:normal;font-weight:500;font-stretch:normal;font-size:8.46667px;font-family:'FiraCode Nerd Font';-inkscape-font-specification:'FiraCode Nerd Font Medium';fill:#cccccc;stroke-width:0.896"
         x="29.992069"
         y="49.8167">repo</tspan></text><path
       style="fill:none;stroke:#333333;stroke-width:0.747;stroke-linecap:round;stroke-miterlimit:13.1;stroke-dasharray:none;stroke-dashoffset:0.596409;stroke-opacity:1;marker-end:url(#Arrow5);paint-order:stroke fill markers"
       d="m 57.132982,110.90913 51.467578,0.14123"
       id="path5157" /></g><style
     type="text/css"
     id="style3">
	.st0{fill:#231F20;}
	.st1{fill:none;stroke:#231F20;stroke-width:0.5;stroke-miterlimit:10;}
</style></svg>
